<svg xmlns="http://www.w3.org/2000/svg" xmlns:xlink="http://www.w3.org/1999/xlink" width="50" zoomAndPan="magnify" viewBox="0 0 37.5 37.499999" height="50" preserveAspectRatio="xMidYMid meet" version="1.0"><defs><clipPath id="fec259a603"><path d="M 2.535156 5.449219 L 34.359375 5.449219 L 34.359375 31.351562 L 2.535156 31.351562 Z M 2.535156 5.449219 " clip-rule="nonzero"/></clipPath></defs><g clip-path="url(#fec259a603)"><path fill="#ffffff" d="M 7.796875 31.550781 C 7.648438 31.550781 7.5 31.476562 7.425781 31.34375 L 2.667969 23.191406 C 2.539062 22.984375 2.613281 22.722656 2.816406 22.613281 L 5.914062 20.804688 C 6.398438 20.523438 6.640625 21.214844 6.941406 21.71875 C 7.3125 21.457031 7.707031 21.175781 8.058594 20.914062 C 11.007812 18.824219 13.804688 16.847656 17.964844 19.253906 C 18.265625 19.347656 22.742188 18.730469 24.8125 20.054688 C 26.304688 19.140625 29.011719 17.183594 30.484375 19.011719 C 32.070312 18.339844 33.695312 18.285156 34.386719 20.039062 C 34.460938 20.207031 34.402344 20.429688 34.234375 20.542969 C 32.800781 21.53125 31.53125 22.464844 30.410156 23.304688 C 24.925781 27.390625 22.144531 29.460938 12.984375 27.035156 L 10.800781 28.320312 C 11.027344 28.695312 11.378906 29.140625 11.304688 29.421875 C 11.269531 29.515625 11.214844 29.609375 11.101562 29.664062 L 8.003906 31.492188 C 7.929688 31.53125 7.875 31.550781 7.796875 31.550781 Z M 21.492188 18.414062 C 21.382812 18.414062 21.289062 18.378906 21.195312 18.304688 C 18.152344 15.261719 15.019531 12.109375 15.019531 8.898438 C 15.019531 6.996094 16.566406 5.449219 18.46875 5.449219 C 19.964844 5.449219 20.820312 6.15625 21.492188 7.257812 C 22.183594 6.15625 23.023438 5.449219 24.535156 5.449219 C 26.4375 5.449219 27.984375 6.996094 27.984375 8.898438 C 27.984375 12.109375 24.832031 15.261719 21.792969 18.304688 C 21.71875 18.378906 21.605469 18.414062 21.492188 18.414062 Z M 18.46875 6.289062 C 17.035156 6.289062 15.859375 7.464844 15.859375 8.898438 C 15.859375 11.660156 18.675781 14.570312 21.492188 17.386719 C 24.328125 14.570312 27.144531 11.660156 27.144531 8.898438 C 27.144531 7.464844 25.96875 6.289062 24.535156 6.289062 C 23.300781 6.289062 22.648438 6.808594 21.882812 8.339844 C 21.71875 8.636719 21.269531 8.636719 21.121094 8.339844 C 20.355469 6.808594 19.683594 6.289062 18.46875 6.289062 Z M 7.371094 22.445312 L 10.375 27.574219 L 12.707031 26.214844 C 12.816406 26.15625 12.929688 26.140625 13.042969 26.175781 C 21.941406 28.5625 24.441406 26.699219 29.90625 22.613281 C 30.953125 21.847656 32.128906 20.972656 33.453125 20.039062 C 33.285156 19.757812 33.042969 19.570312 32.761719 19.476562 C 31.324219 19.066406 28.65625 20.953125 27.070312 22.089844 C 26.605469 22.40625 25.894531 22.984375 25.617188 22.984375 L 19.402344 23.003906 C 18.863281 23.003906 18.84375 22.164062 19.402344 22.164062 L 25.207031 22.128906 C 24.90625 19.050781 18.210938 20.390625 17.632812 20.054688 C 13.339844 17.5 10.800781 20.09375 7.371094 22.445312 Z M 9.871094 28.378906 C 8.582031 26.269531 7.257812 23.917969 5.988281 21.753906 L 3.621094 23.136719 L 7.949219 30.542969 L 10.316406 29.160156 Z M 25.484375 20.652344 C 25.746094 20.972656 25.933594 21.363281 26.007812 21.792969 C 27.164062 20.988281 28.359375 20.09375 29.683594 19.386719 C 28.675781 18.507812 26.550781 19.964844 25.484375 20.652344 Z M 25.484375 20.652344 " fill-opacity="1" fill-rule="evenodd"/></g></svg>