<svg xmlns="http://www.w3.org/2000/svg" xmlns:xlink="http://www.w3.org/1999/xlink" width="50" zoomAndPan="magnify" viewBox="0 0 37.5 37.499999" height="50" preserveAspectRatio="xMidYMid meet" version="1.0"><defs><clipPath id="bad24ea15d"><path d="M 3.09375 3.09375 L 34 3.09375 L 34 34 L 3.09375 34 Z M 3.09375 3.09375 " clip-rule="nonzero"/></clipPath></defs><path fill="#ffffff" d="M 19.117188 17.464844 C 17.058594 16.613281 16.183594 15.996094 16.183594 14.765625 C 16.183594 13.816406 16.867188 12.726562 18.691406 12.726562 C 20.210938 12.726562 21.179688 13.25 21.675781 13.53125 L 22.269531 11.96875 C 21.582031 11.566406 20.609375 11.1875 19.191406 11.140625 L 19.191406 8.84375 L 17.722656 8.84375 L 17.722656 11.234375 C 15.542969 11.589844 14.144531 13.082031 14.144531 15.046875 C 14.144531 17.109375 15.636719 18.199219 18.054688 19.148438 C 19.804688 19.859375 20.730469 20.664062 20.730469 21.964844 C 20.730469 23.316406 19.59375 24.289062 17.910156 24.289062 C 16.585938 24.289062 15.351562 23.835938 14.5 23.269531 L 13.929688 24.855469 C 14.761719 25.449219 16.183594 25.875 17.554688 25.898438 L 17.554688 28.289062 L 19.046875 28.289062 L 19.046875 25.828125 C 21.488281 25.425781 22.792969 23.671875 22.792969 21.800781 C 22.792969 19.691406 21.558594 18.460938 19.117188 17.464844 Z M 19.117188 17.464844 " fill-opacity="1" fill-rule="nonzero"/><g clip-path="url(#bad24ea15d)"><path fill="#ffffff" d="M 18.5 3.09375 C 10.003906 3.09375 3.09375 10.003906 3.09375 18.5 C 3.09375 27 10.003906 33.910156 18.5 33.910156 C 27 33.910156 33.910156 27 33.910156 18.5 C 33.910156 10.003906 27 3.09375 18.5 3.09375 Z M 18.5 32.191406 C 10.953125 32.191406 4.8125 26.050781 4.8125 18.5 C 4.8125 10.953125 10.953125 4.8125 18.5 4.8125 C 26.050781 4.8125 32.191406 10.953125 32.191406 18.5 C 32.191406 26.050781 26.050781 32.191406 18.5 32.191406 Z M 18.5 32.191406 " fill-opacity="1" fill-rule="nonzero"/></g></svg>