<svg xmlns="http://www.w3.org/2000/svg" xmlns:xlink="http://www.w3.org/1999/xlink" width="20" zoomAndPan="magnify" viewBox="0 0 375 374.999991" height="20" preserveAspectRatio="xMidYMid meet" version="1.0"><defs><clipPath id="aab258b245"><path d="M 16.332031 224 L 358.332031 224 L 358.332031 344 L 16.332031 344 Z M 16.332031 224 " clip-rule="nonzero"/></clipPath></defs><path fill="#ffffff" d="M 128.839844 197.25 C 148.242188 208.734375 165 218.648438 171.597656 232.878906 C 172.042969 233.835938 173.003906 234.449219 174.0625 234.449219 C 175.117188 234.449219 176.078125 233.835938 176.523438 232.878906 C 183.121094 218.648438 199.878906 208.734375 219.28125 197.25 C 252.347656 177.675781 293.507812 153.316406 293.507812 95.085938 C 292.746094 64.828125 269.46875 38.898438 239.359375 34.777344 C 216.636719 31.671875 188.316406 41.84375 174.058594 78.652344 C 159.796875 41.847656 131.480469 31.671875 108.761719 34.777344 C 78.648438 38.898438 55.371094 64.828125 54.609375 95.152344 C 54.609375 153.316406 95.769531 177.675781 128.839844 197.25 Z M 109.496094 40.15625 C 111.75 39.847656 114.0625 39.6875 116.414062 39.6875 C 137.019531 39.6875 160.550781 52.136719 171.460938 87.757812 C 171.808594 88.898438 172.867188 89.675781 174.058594 89.675781 C 175.25 89.675781 176.304688 88.898438 176.652344 87.757812 C 188.8125 48.070312 216.636719 37.136719 238.621094 40.15625 C 262.007812 43.359375 287.285156 63.746094 288.078125 95.152344 C 288.078125 150.21875 250.058594 172.71875 216.511719 192.574219 C 199.070312 202.898438 182.507812 212.703125 174.058594 226.085938 C 165.613281 212.703125 149.042969 202.898438 131.605469 192.578125 C 98.0625 172.722656 60.039062 150.21875 60.039062 95.222656 C 60.828125 63.746094 86.109375 43.359375 109.496094 40.15625 Z M 109.496094 40.15625 " fill-opacity="1" fill-rule="nonzero"/><g clip-path="url(#aab258b245)"><path fill="#ffffff" d="M 355.945312 256.335938 L 301.765625 256.335938 C 301.273438 252.132812 299.242188 244.117188 291.132812 237.875 C 275.800781 226.066406 247.335938 226.707031 206.789062 239.710938 L 205.371094 240.019531 C 186.492188 244.117188 176.09375 246.375 158.457031 241.398438 L 156.652344 240.882812 C 146.167969 237.863281 126.648438 232.253906 115.195312 239.070312 C 111.304688 241.390625 108.734375 244.910156 107.546875 249.542969 C 71.546875 223.039062 52.996094 225.28125 45.792969 228.230469 C 35.863281 225.035156 29.148438 223.023438 23.136719 225.957031 C 19.71875 227.628906 17.253906 231.058594 16.710938 234.917969 C 16.210938 238.429688 17.359375 241.738281 19.851562 243.996094 C 24.078125 247.816406 28.957031 252.433594 34.613281 257.773438 C 48.402344 270.804688 65.558594 287.023438 82.996094 300.882812 C 94.863281 310.5625 101.125 313.664062 116.261719 313.753906 C 117.5 314.417969 118.757812 315.027344 120.066406 315.507812 C 143.375 324.144531 204.742188 338.730469 231.253906 341.949219 C 239.09375 343.203125 245.367188 343.710938 252.90625 343.710938 L 355.945312 343.710938 C 357.445312 343.710938 358.660156 342.496094 358.660156 340.996094 L 358.660156 259.050781 C 358.660156 257.550781 357.445312 256.335938 355.945312 256.335938 Z M 38.347656 253.832031 C 32.671875 248.464844 27.773438 243.832031 23.503906 239.972656 C 21.949219 238.5625 21.953125 236.679688 22.09375 235.679688 C 22.386719 233.582031 23.703125 231.726562 25.527344 230.835938 C 29.035156 229.125 33.84375 230.191406 40.613281 232.285156 C 39.75 233.511719 39.09375 234.898438 38.761719 236.429688 C 37.996094 239.992188 38.882812 243.636719 41.195312 246.429688 C 49.230469 256.136719 62.40625 267.484375 77.65625 280.621094 C 87.769531 289.332031 98.210938 298.347656 108.324219 307.871094 C 100.066406 306.808594 95.0625 303.710938 86.410156 296.65625 C 69.128906 282.917969 52.058594 266.789062 38.347656 253.832031 Z M 353.230469 338.28125 L 252.914062 338.28125 C 245.679688 338.28125 239.65625 337.792969 232.015625 336.574219 C 205.691406 333.375 145.003906 318.953125 121.957031 310.417969 C 118.664062 309.199219 115.605469 307.265625 112.867188 304.679688 C 102.410156 294.789062 91.628906 285.496094 81.199219 276.511719 C 66.128906 263.53125 53.121094 252.320312 45.375 242.972656 C 44.128906 241.46875 43.652344 239.503906 44.066406 237.578125 C 44.449219 235.800781 45.570312 234.34375 47.136719 233.574219 C 48.542969 232.890625 51.257812 231.949219 55.570312 231.949219 C 64.769531 231.949219 81.226562 236.234375 107.652344 256.414062 C 107.65625 256.421875 107.65625 256.425781 107.660156 256.433594 C 109.5 260.839844 114.554688 264.425781 122.84375 267.140625 C 134.511719 270.226562 153.449219 277.28125 163.371094 282.238281 C 170.8125 285.953125 179.558594 287.867188 190.105469 288.089844 C 191.578125 288.121094 193.070312 288.136719 194.574219 288.148438 C 200.875 288.214844 207.394531 288.28125 212.3125 289.5625 C 216.050781 290.792969 217.929688 291.40625 220.601562 295.945312 C 221.363281 297.234375 223.023438 297.664062 224.320312 296.90625 C 225.609375 296.144531 226.039062 294.480469 225.28125 293.1875 C 221.570312 286.890625 218.066406 285.738281 214.011719 284.40625 C 213.953125 284.386719 213.679688 284.300781 213.621094 284.285156 C 208.113281 282.867188 201.257812 282.796875 194.628906 282.726562 C 193.148438 282.710938 191.671875 282.695312 190.222656 282.664062 C 180.492188 282.460938 172.503906 280.734375 165.796875 277.382812 C 155.609375 272.296875 136.1875 265.058594 124.386719 261.941406 C 115.960938 259.179688 113.476562 256.101562 112.746094 254.511719 C 112.671875 254.347656 112.609375 254.191406 112.558594 254.042969 C 112.542969 253.976562 112.519531 253.914062 112.5 253.847656 C 112.199219 252.78125 112.464844 252.078125 112.457031 252.078125 C 112.558594 251.875 112.632812 251.667969 112.679688 251.445312 C 113.453125 247.925781 115.1875 245.402344 117.980469 243.742188 C 127.414062 238.132812 146.148438 243.515625 155.15625 246.109375 L 156.988281 246.632812 C 175.929688 251.980469 187.445312 249.472656 206.527344 245.332031 L 208.195312 244.957031 C 256.652344 229.4375 278.191406 234.84375 287.722656 242.109375 C 296.785156 249.011719 296.496094 258.53125 296.484375 258.917969 C 296.445312 259.660156 296.714844 260.390625 297.226562 260.925781 C 297.738281 261.46875 298.449219 261.769531 299.195312 261.769531 L 353.230469 261.769531 Z M 353.230469 338.28125 " fill-opacity="1" fill-rule="nonzero"/></g></svg>