<svg xmlns="http://www.w3.org/2000/svg" xmlns:xlink="http://www.w3.org/1999/xlink" width="500" zoomAndPan="magnify" viewBox="0 0 375 374.999991" height="500" preserveAspectRatio="xMidYMid meet" version="1.0"><defs><clipPath id="44947df2b1"><path d="M 79 83.753906 L 296 83.753906 L 296 229 L 79 229 Z M 79 83.753906 " clip-rule="nonzero"/></clipPath><clipPath id="d3b1c4da02"><path d="M 78.175781 101.753906 L 78.175781 210.816406 C 78.175781 221.167969 86.570312 229.566406 96.925781 229.566406 L 278.074219 229.566406 C 288.429688 229.566406 296.824219 221.167969 296.824219 210.816406 L 296.824219 101.753906 C 296.824219 91.402344 288.429688 83.003906 278.074219 83.003906 L 96.925781 83.003906 C 86.570312 83.003906 78.175781 91.402344 78.175781 101.753906 Z M 78.175781 101.753906 " clip-rule="nonzero"/></clipPath><clipPath id="8956b1fc2f"><path d="M 97.828125 83.90625 L 277.171875 83.90625 C 287.527344 83.90625 295.921875 92.300781 295.921875 102.65625 L 295.921875 209.914062 C 295.921875 220.269531 287.527344 228.664062 277.171875 228.664062 L 97.828125 228.664062 C 87.472656 228.664062 79.078125 220.269531 79.078125 209.914062 L 79.078125 102.65625 C 79.078125 92.300781 87.472656 83.90625 97.828125 83.90625 Z M 97.828125 83.90625 " clip-rule="nonzero"/></clipPath><clipPath id="3a4f708621"><path d="M 78.175781 83.003906 L 297 83.003906 L 297 229.253906 L 78.175781 229.253906 Z M 78.175781 83.003906 " clip-rule="nonzero"/></clipPath><clipPath id="60021cdb42"><path d="M 78.175781 101.753906 L 78.175781 210.816406 C 78.175781 221.167969 86.570312 229.566406 96.925781 229.566406 L 278.074219 229.566406 C 288.429688 229.566406 296.824219 221.167969 296.824219 210.816406 L 296.824219 101.753906 C 296.824219 91.402344 288.429688 83.003906 278.074219 83.003906 L 96.925781 83.003906 C 86.570312 83.003906 78.175781 91.402344 78.175781 101.753906 Z M 78.175781 101.753906 " clip-rule="nonzero"/></clipPath><clipPath id="2d92ef2dbf"><path d="M 78.175781 101.753906 L 78.175781 210.8125 C 78.175781 221.164062 86.570312 229.558594 96.925781 229.558594 L 278.0625 229.558594 C 288.417969 229.558594 296.8125 221.164062 296.8125 210.8125 L 296.8125 101.753906 C 296.8125 91.398438 288.417969 83.003906 278.0625 83.003906 L 96.925781 83.003906 C 86.570312 83.003906 78.175781 91.398438 78.175781 101.753906 Z M 78.175781 101.753906 " clip-rule="nonzero"/></clipPath><clipPath id="210fc22009"><path d="M 148.027344 166 L 171 166 L 171 175 L 148.027344 175 Z M 148.027344 166 " clip-rule="nonzero"/></clipPath></defs><g clip-path="url(#44947df2b1)"><g clip-path="url(#d3b1c4da02)"><g clip-path="url(#8956b1fc2f)"><path fill="#ffffff" d="M 296.808594 229.496094 L 78.175781 229.496094 L 78.175781 83.066406 L 296.808594 83.066406 Z M 79.070312 228.601562 L 295.917969 228.601562 L 295.917969 83.960938 L 79.070312 83.960938 Z M 295.683594 228.367188 L 79.304688 228.367188 L 79.304688 84.195312 L 295.683594 84.195312 Z M 80.199219 227.476562 L 294.789062 227.476562 L 294.789062 85.089844 L 80.199219 85.089844 Z M 80.199219 227.476562 " fill-opacity="1" fill-rule="nonzero"/></g></g></g><g clip-path="url(#3a4f708621)"><g clip-path="url(#60021cdb42)"><g clip-path="url(#2d92ef2dbf)"><path stroke-linecap="butt" transform="matrix(0.75, 0, 0, 0.75, 78.176719, 83.005761)" fill="none" stroke-linejoin="miter" d="M -0.00124976 24.997529 L -0.00124976 170.408997 C -0.00124976 184.211081 11.191459 195.40379 24.99875 195.40379 L 266.514376 195.40379 C 280.321667 195.40379 291.514376 184.211081 291.514376 170.408997 L 291.514376 24.997529 C 291.514376 11.190236 280.321667 -0.00247293 266.514376 -0.00247293 L 24.99875 -0.00247293 C 11.191459 -0.00247293 -0.00124976 11.190236 -0.00124976 24.997529 Z M -0.00124976 24.997529 " stroke="#ffffff" stroke-width="20" stroke-opacity="1" stroke-miterlimit="4"/></g></g></g><path fill="#ffffff" d="M 254.851562 180.867188 C 252.386719 181.9375 250.476562 183.738281 249.257812 185.933594 C 246.316406 180.710938 239.832031 178.457031 234.238281 180.894531 C 231.644531 182.023438 229.636719 184.015625 228.445312 186.347656 C 225.21875 182.128906 219.417969 180.480469 214.308594 182.707031 C 211.894531 183.757812 209.976562 185.53125 208.765625 187.691406 L 199.507812 166.4375 C 196.90625 160.464844 189.910156 157.734375 183.9375 160.335938 C 177.960938 162.9375 175.21875 169.90625 177.824219 175.882812 L 200.410156 227.742188 C 195.453125 225.183594 189.203125 226.453125 185.667969 231.046875 C 181.683594 236.203125 182.65625 243.640625 187.808594 247.628906 L 224.507812 275.917969 L 224.925781 276.25 C 227.492188 278.1875 230.375 279.59375 233.4375 280.375 C 238.75 281.8125 244.25 281.382812 249.332031 279.167969 L 278.519531 266.457031 C 290.796875 261.105469 296.4375 246.765625 291.074219 234.464844 L 270.390625 186.976562 C 267.796875 181.003906 260.828125 178.261719 254.851562 180.867188 Z M 286.761719 236.347656 C 291.082031 246.261719 286.53125 257.832031 276.644531 262.140625 L 247.460938 274.851562 C 243.367188 276.632812 238.941406 276.957031 234.628906 275.8125 C 232.144531 275.171875 229.84375 274.058594 227.804688 272.496094 L 190.695312 243.898438 C 187.597656 241.5 187.011719 237.035156 189.414062 233.933594 C 190.171875 232.96875 191.128906 232.25 192.195312 231.785156 C 194.484375 230.789062 197.238281 231.007812 199.351562 232.664062 L 204.171875 236.371094 L 206.855469 242.523438 C 207.375 243.71875 208.761719 244.265625 209.957031 243.746094 C 211.152344 243.226562 211.722656 241.824219 211.203125 240.632812 L 182.179688 174.003906 C 180.617188 170.417969 182.257812 166.257812 185.839844 164.695312 C 189.425781 163.132812 193.609375 164.761719 195.171875 168.34375 L 216.453125 217.203125 C 216.976562 218.398438 218.363281 218.945312 219.554688 218.425781 C 220.777344 217.894531 221.320312 216.507812 220.800781 215.3125 L 212.550781 196.371094 C 210.988281 192.789062 212.613281 188.601562 216.199219 187.039062 C 219.804688 185.46875 223.980469 187.128906 225.550781 190.738281 L 228.140625 196.476562 L 235.628906 213.660156 C 236.148438 214.851562 237.535156 215.398438 238.730469 214.878906 C 239.925781 214.359375 240.472656 212.972656 239.953125 211.777344 L 232.453125 194.566406 C 230.890625 190.980469 232.554688 186.808594 236.136719 185.246094 C 239.722656 183.683594 243.90625 185.3125 245.46875 188.894531 L 255.292969 211.445312 C 255.8125 212.636719 257.199219 213.183594 258.394531 212.660156 C 259.589844 212.140625 260.132812 210.753906 259.613281 209.5625 L 253.070312 194.539062 C 251.507812 190.953125 253.160156 186.757812 256.742188 185.195312 C 260.328125 183.632812 264.523438 185.285156 266.085938 188.867188 Z M 286.761719 236.347656 " fill-opacity="1" fill-rule="nonzero"/><path fill="#ffffff" d="M 266.078125 188.863281 L 286.761719 236.347656 C 291.082031 246.261719 286.53125 257.832031 276.644531 262.140625 L 247.460938 274.851562 C 243.367188 276.632812 238.941406 276.957031 234.628906 275.8125 C 232.144531 275.171875 229.84375 274.058594 227.804688 272.496094 L 190.695312 243.898438 C 187.597656 241.5 187.011719 237.035156 189.414062 233.933594 C 190.171875 232.96875 191.128906 232.25 192.195312 231.785156 C 194.484375 230.789062 197.238281 231.007812 199.351562 232.664062 L 204.171875 236.371094 L 206.855469 242.523438 C 207.375 243.71875 208.761719 244.265625 209.957031 243.746094 C 211.152344 243.226562 211.722656 241.824219 211.203125 240.632812 L 182.179688 174.003906 C 180.617188 170.417969 182.257812 166.257812 185.839844 164.695312 C 189.425781 163.132812 193.609375 164.761719 195.171875 168.34375 L 216.453125 217.203125 C 216.976562 218.398438 218.363281 218.945312 219.554688 218.425781 C 220.777344 217.894531 221.320312 216.507812 220.800781 215.3125 L 212.550781 196.371094 C 210.988281 192.789062 212.613281 188.601562 216.199219 187.039062 C 219.804688 185.46875 223.980469 187.128906 225.550781 190.738281 L 228.140625 196.476562 L 235.628906 213.660156 C 236.148438 214.851562 237.535156 215.398438 238.730469 214.878906 C 239.925781 214.359375 240.472656 212.972656 239.953125 211.777344 L 232.453125 194.566406 C 230.890625 190.980469 232.554688 186.808594 236.136719 185.246094 C 239.722656 183.683594 243.90625 185.3125 245.46875 188.894531 L 255.292969 211.445312 C 255.8125 212.636719 257.199219 213.183594 258.394531 212.660156 C 259.589844 212.140625 260.132812 210.753906 259.613281 209.5625 L 253.070312 194.539062 C 251.507812 190.953125 253.160156 186.757812 256.742188 185.195312 C 260.320312 183.625 264.515625 185.277344 266.078125 188.863281 Z M 266.078125 188.863281 " fill-opacity="1" fill-rule="nonzero"/><path fill="#ffffff" d="M 179.773438 152.933594 C 178.9375 152.933594 178.140625 152.445312 177.785156 151.628906 L 170.351562 134.558594 C 169.875 133.464844 170.375 132.1875 171.472656 131.710938 C 172.570312 131.234375 173.84375 131.734375 174.324219 132.832031 L 181.757812 149.902344 C 182.234375 150.996094 181.734375 152.273438 180.636719 152.75 C 180.355469 152.875 180.0625 152.933594 179.773438 152.933594 Z M 179.773438 152.933594 " fill-opacity="1" fill-rule="nonzero"/><path fill="#ffffff" d="M 190.136719 152.292969 C 189.933594 152.292969 189.726562 152.261719 189.523438 152.199219 C 188.375 151.863281 187.722656 150.65625 188.0625 149.511719 L 193.339844 131.65625 C 193.675781 130.507812 194.882812 129.855469 196.027344 130.191406 C 197.175781 130.53125 197.828125 131.738281 197.492188 132.882812 L 192.214844 150.738281 C 191.933594 151.683594 191.070312 152.292969 190.136719 152.292969 Z M 190.136719 152.292969 " fill-opacity="1" fill-rule="nonzero"/><path fill="#ffffff" d="M 201.246094 156.007812 C 200.546875 156.007812 199.855469 155.667969 199.441406 155.039062 C 198.777344 154.042969 199.054688 152.695312 200.046875 152.039062 L 215.566406 141.75 C 216.5625 141.089844 217.910156 141.359375 218.566406 142.359375 C 219.230469 143.355469 218.953125 144.699219 217.960938 145.359375 L 202.441406 155.644531 C 202.074219 155.890625 201.65625 156.007812 201.246094 156.007812 Z M 201.246094 156.007812 " fill-opacity="1" fill-rule="nonzero"/><g clip-path="url(#210fc22009)"><path fill="#ffffff" d="M 150.402344 174.933594 C 149.421875 174.933594 148.539062 174.265625 148.300781 173.273438 C 148.019531 172.109375 148.734375 170.941406 149.898438 170.664062 L 167.996094 166.304688 C 169.160156 166.023438 170.332031 166.738281 170.609375 167.902344 C 170.890625 169.066406 170.171875 170.238281 169.011719 170.515625 L 150.910156 174.871094 C 150.742188 174.910156 150.570312 174.933594 150.402344 174.933594 Z M 150.402344 174.933594 " fill-opacity="1" fill-rule="nonzero"/></g><path fill="#ffffff" d="M 172.242188 160.085938 C 171.917969 160.085938 171.589844 160.011719 171.277344 159.859375 L 154.609375 151.5625 C 153.539062 151.03125 153.101562 149.726562 153.636719 148.660156 C 154.167969 147.589844 155.46875 147.152344 156.539062 147.683594 L 173.207031 155.980469 C 174.277344 156.511719 174.714844 157.816406 174.179688 158.886719 C 173.804688 159.648438 173.035156 160.085938 172.242188 160.085938 Z M 172.242188 160.085938 " fill-opacity="1" fill-rule="nonzero"/></svg>