<svg xmlns="http://www.w3.org/2000/svg" xmlns:xlink="http://www.w3.org/1999/xlink" width="500" zoomAndPan="magnify" viewBox="0 0 375 374.999991" height="500" preserveAspectRatio="xMidYMid meet" version="1.0"><defs><clipPath id="8dc6354cbe"><path d="M 238 195 L 296.410156 195 L 296.410156 238 L 238 238 Z M 238 195 " clip-rule="nonzero"/></clipPath><clipPath id="5be1a4503a"><path d="M 78.910156 195 L 137 195 L 137 238 L 78.910156 238 Z M 78.910156 195 " clip-rule="nonzero"/></clipPath><clipPath id="e27072f6ff"><path d="M 156 129.40625 L 219 129.40625 L 219 192 L 156 192 Z M 156 129.40625 " clip-rule="nonzero"/></clipPath><clipPath id="0ce7e55339"><path d="M 140 195 L 234 195 L 234 245.65625 L 140 245.65625 Z M 140 195 " clip-rule="nonzero"/></clipPath></defs><path fill="#ffffff" d="M 256.984375 191.367188 C 241.886719 191.367188 229.886719 179.363281 229.886719 164.265625 C 229.886719 149.167969 241.886719 137.167969 256.984375 137.167969 C 272.082031 137.167969 284.082031 149.167969 284.082031 164.265625 C 284.082031 179.363281 272.082031 191.367188 256.984375 191.367188 Z M 256.984375 144.910156 C 246.144531 144.910156 237.628906 153.429688 237.628906 164.265625 C 237.628906 175.105469 246.144531 183.625 256.984375 183.625 C 267.824219 183.625 276.339844 175.105469 276.339844 164.265625 C 276.339844 153.429688 267.824219 144.910156 256.984375 144.910156 Z M 256.984375 144.910156 " fill-opacity="1" fill-rule="nonzero"/><g clip-path="url(#8dc6354cbe)"><path fill="#ffffff" d="M 295.695312 237.820312 L 249.628906 237.820312 C 247.304688 237.820312 245.757812 236.269531 245.757812 233.949219 C 245.757812 231.625 247.304688 230.078125 249.628906 230.078125 L 287.953125 230.078125 C 286.015625 214.980469 272.855469 202.980469 257.371094 202.980469 C 252.339844 202.980469 247.691406 204.140625 243.433594 206.464844 C 241.5 207.238281 239.175781 206.851562 238.402344 204.914062 C 237.628906 202.980469 238.015625 200.65625 239.949219 199.882812 C 245.371094 197.171875 251.175781 195.625 257.371094 195.625 C 278.660156 195.625 296.082031 213.042969 296.082031 234.335938 L 296.082031 237.820312 Z M 295.695312 237.820312 " fill-opacity="1" fill-rule="nonzero"/></g><path fill="#ffffff" d="M 117.621094 191.367188 C 102.523438 191.367188 90.523438 179.363281 90.523438 164.265625 C 90.523438 149.167969 102.523438 137.167969 117.621094 137.167969 C 132.71875 137.167969 144.71875 149.167969 144.71875 164.265625 C 144.71875 179.363281 132.71875 191.367188 117.621094 191.367188 Z M 117.621094 144.910156 C 106.78125 144.910156 98.265625 153.429688 98.265625 164.265625 C 98.265625 175.105469 106.78125 183.625 117.621094 183.625 C 128.460938 183.625 136.976562 175.105469 136.976562 164.265625 C 136.976562 153.429688 128.460938 144.910156 117.621094 144.910156 Z M 117.621094 144.910156 " fill-opacity="1" fill-rule="nonzero"/><g clip-path="url(#5be1a4503a)"><path fill="#ffffff" d="M 124.976562 237.820312 L 78.910156 237.820312 L 78.910156 233.949219 C 78.910156 212.65625 96.332031 195.238281 117.621094 195.238281 C 123.816406 195.238281 129.621094 196.398438 134.65625 199.109375 C 136.589844 199.882812 137.363281 202.203125 136.589844 204.140625 C 135.816406 206.074219 133.492188 206.851562 131.558594 206.074219 C 126.914062 204.140625 122.265625 202.980469 117.621094 202.980469 C 101.75 202.980469 88.976562 214.980469 87.039062 230.078125 L 125.363281 230.078125 C 127.6875 230.078125 129.234375 231.625 129.234375 233.949219 C 129.234375 236.269531 127.300781 237.820312 124.976562 237.820312 Z M 124.976562 237.820312 " fill-opacity="1" fill-rule="nonzero"/></g><g clip-path="url(#e27072f6ff)"><path fill="#ffffff" d="M 187.300781 191.367188 C 170.269531 191.367188 156.332031 177.429688 156.332031 160.394531 C 156.332031 143.363281 170.269531 129.425781 187.300781 129.425781 C 204.335938 129.425781 218.273438 143.363281 218.273438 160.394531 C 218.273438 177.429688 204.335938 191.367188 187.300781 191.367188 Z M 187.300781 137.167969 C 174.527344 137.167969 164.074219 147.621094 164.074219 160.394531 C 164.074219 173.171875 174.527344 183.625 187.300781 183.625 C 200.078125 183.625 210.53125 173.171875 210.53125 160.394531 C 210.53125 147.621094 200.078125 137.167969 187.300781 137.167969 Z M 187.300781 137.167969 " fill-opacity="1" fill-rule="nonzero"/></g><g clip-path="url(#0ce7e55339)"><path fill="#ffffff" d="M 233.757812 245.5625 L 164.074219 245.5625 C 161.753906 245.5625 160.203125 244.011719 160.203125 241.691406 C 160.203125 239.367188 161.753906 237.820312 164.074219 237.820312 L 226.015625 237.820312 C 224.078125 218.464844 207.433594 202.980469 187.300781 202.980469 C 166.011719 202.980469 148.589844 220.398438 148.589844 241.691406 C 148.589844 244.011719 147.042969 245.5625 144.71875 245.5625 C 142.398438 245.5625 140.847656 244.011719 140.847656 241.691406 C 140.847656 216.140625 161.753906 195.238281 187.300781 195.238281 C 212.851562 195.238281 233.757812 216.140625 233.757812 241.691406 Z M 233.757812 245.5625 " fill-opacity="1" fill-rule="nonzero"/></g></svg>